<?xml version="1.0" encoding="UTF-8" standalone="no"?>
<!-- Created with Inkscape (http://www.inkscape.org/) -->

<svg
   xmlns:dc="http://purl.org/dc/elements/1.1/"
   xmlns:cc="http://creativecommons.org/ns#"
   xmlns:rdf="http://www.w3.org/1999/02/22-rdf-syntax-ns#"
   xmlns:svg="http://www.w3.org/2000/svg"
   xmlns="http://www.w3.org/2000/svg"
   xmlns:sodipodi="http://sodipodi.sourceforge.net/DTD/sodipodi-0.dtd"
   xmlns:inkscape="http://www.inkscape.org/namespaces/inkscape"
   version="1.1"
   id="svg13289"
   xml:space="preserve"
   width="800"
   height="800"
   viewBox="0 0 800 800"
   sodipodi:docname="scissors-hair-publicdomainvectors.org.svg"
   inkscape:version="0.92.4 (5da689c313, 2019-01-14)"><metadata
     id="metadata13295"><rdf:RDF><cc:Work
         rdf:about=""><dc:format>image/svg+xml</dc:format><dc:type
           rdf:resource="http://purl.org/dc/dcmitype/StillImage" /><dc:title></dc:title></cc:Work></rdf:RDF></metadata><defs
     id="defs13293"><clipPath
       clipPathUnits="userSpaceOnUse"
       id="clipPath13305"><path
         d="M 0,600 H 600 V 0 H 0 Z"
         id="path13303"
         inkscape:connector-curvature="0" /></clipPath></defs><sodipodi:namedview
     pagecolor="#ffffff"
     bordercolor="#666666"
     borderopacity="1"
     objecttolerance="10"
     gridtolerance="10"
     guidetolerance="10"
     inkscape:pageopacity="0"
     inkscape:pageshadow="2"
     inkscape:window-width="1920"
     inkscape:window-height="1018"
     id="namedview13291"
     showgrid="false"
     inkscape:zoom="0.95593511"
     inkscape:cx="432.20339"
     inkscape:cy="372.88136"
     inkscape:window-x="-8"
     inkscape:window-y="-8"
     inkscape:window-maximized="1"
     inkscape:current-layer="g13297" /><g
     id="g13297"
     inkscape:groupmode="layer"
     inkscape:label="scissors-hair-publicdomainvectors.org"
     transform="matrix(1.3333333,0,0,-1.3333333,0,800)"><g
       id="g13299"><g
         id="g13301"
         clip-path="url(#clipPath13305)"><path
           d="m 483.257,425.77 c -0.095,0.231 -0.176,0.396 -0.267,0.603 -0.695,1.589 -1.685,3.318 -3.078,4.982 -1.375,1.676 -3.176,3.261 -5.322,4.555 -1.075,0.647 -2.237,1.209 -3.459,1.706 -1.228,0.483 -2.528,0.844 -3.864,1.136 -1.342,0.268 -2.724,0.444 -4.128,0.527 -1.405,0.064 -2.829,0.032 -4.253,-0.109 -1.423,-0.16 -2.851,-0.383 -4.252,-0.733 -1.398,-0.362 -2.793,-0.768 -4.137,-1.305 -0.681,-0.248 -1.332,-0.561 -1.995,-0.846 -0.648,-0.325 -1.298,-0.611 -1.939,-0.975 l -0.959,-0.523 -0.887,-0.531 -0.443,-0.267 -0.467,-0.312 -0.883,-0.595 -0.879,-0.593 -0.831,-0.648 c -0.541,-0.446 -1.116,-0.847 -1.617,-1.328 -0.513,-0.465 -1.023,-0.927 -1.53,-1.388 -0.476,-0.49 -0.949,-0.975 -1.418,-1.457 -1.832,-1.969 -3.389,-4.061 -4.664,-6.16 -1.251,-2.113 -2.269,-4.203 -2.977,-6.219 -0.206,-0.492 -0.346,-0.998 -0.497,-1.484 -0.149,-0.488 -0.312,-0.959 -0.428,-1.431 -0.104,-0.472 -0.211,-0.934 -0.311,-1.381 -0.05,-0.223 -0.1,-0.443 -0.148,-0.661 -0.042,-0.219 -0.07,-0.437 -0.104,-0.65 -0.123,-0.854 -0.282,-1.642 -0.303,-2.391 -0.039,-0.744 -0.126,-1.417 -0.098,-2.04 0.007,-0.614 0.014,-1.165 0.021,-1.643 0.045,-0.471 0.083,-0.872 0.115,-1.197 0.067,-0.649 0.103,-0.996 0.103,-0.996 0,0 0.02,0.348 0.059,1.001 0.017,0.326 0.038,0.728 0.062,1.199 0.058,0.466 0.125,1.001 0.201,1.598 0.047,0.597 0.217,1.252 0.345,1.961 0.121,0.713 0.345,1.466 0.55,2.274 0.055,0.199 0.103,0.405 0.164,0.611 0.07,0.204 0.14,0.409 0.212,0.62 0.141,0.418 0.286,0.849 0.436,1.289 0.162,0.437 0.353,0.876 0.531,1.329 0.186,0.453 0.356,0.921 0.592,1.374 0.22,0.459 0.447,0.928 0.677,1.404 0.239,0.471 0.521,0.933 0.786,1.412 0.132,0.239 0.268,0.479 0.404,0.722 0.148,0.235 0.298,0.472 0.45,0.71 0.309,0.474 0.598,0.968 0.934,1.441 1.319,1.914 2.918,3.772 4.68,5.573 1.763,1.809 3.842,3.396 6.017,4.879 l 0.828,0.543 0.392,0.258 0.446,0.261 0.894,0.521 0.867,0.457 c 0.567,0.315 1.189,0.582 1.787,0.872 0.615,0.254 1.221,0.54 1.849,0.759 2.481,0.974 5.076,1.618 7.664,1.946 1.295,0.142 2.587,0.209 3.864,0.205 1.274,-0.031 2.531,-0.144 3.752,-0.341 1.22,-0.213 2.396,-0.524 3.533,-0.88 1.126,-0.383 2.207,-0.824 3.215,-1.351 0.997,-0.54 1.948,-1.115 2.798,-1.768 0.447,-0.302 0.833,-0.661 1.243,-0.984 0.378,-0.353 0.767,-0.686 1.111,-1.05 1.399,-1.434 2.496,-2.946 3.319,-4.379 0.1,-0.173 0.199,-0.344 0.295,-0.511 0.09,-0.185 0.179,-0.366 0.266,-0.545 0.175,-0.355 0.344,-0.697 0.507,-1.026 0.282,-0.658 0.516,-1.27 0.742,-1.826 0.181,-0.577 0.343,-1.09 0.484,-1.538 0.151,-0.445 0.212,-0.843 0.296,-1.157 0.156,-0.635 0.239,-0.973 0.239,-0.973 0,0 -0.028,0.347 -0.077,1 -0.038,0.323 -0.04,0.735 -0.123,1.202 -0.08,0.471 -0.171,1.013 -0.274,1.62 -0.158,0.595 -0.322,1.271 -0.529,1.993 -0.123,0.346 -0.252,0.705 -0.384,1.08 -0.066,0.186 -0.136,0.375 -0.205,0.569 m -14.521,-38.798 c -15.253,-8.843 -33.278,-5 -40.26,8.582 -6.984,13.582 -0.28,31.762 14.971,40.605 15.253,8.843 33.278,5.001 40.261,-8.581 6.983,-13.583 0.279,-31.763 -14.972,-40.606 M 452.7,453.339 c -3.398,-1.741 -6.643,-4.053 -9.725,-6.756 -2.359,1.546 -4.217,3.756 -4.244,6.776 -5.28,-0.261 -4.832,-7.939 -4.061,-9.79 0.271,-0.651 1.078,-1.893 2.012,-3.231 -14.695,-16.289 -25.174,-39.685 -31.301,-46.366 -8.159,-8.898 -41.605,-24.348 -41.605,-24.348 -1.802,-0.137 -15.05,6.053 -20.555,8.972 0.344,-1.666 0.703,-3.297 1.063,-4.903 1.388,-6.174 2.82,-11.857 3.74,-16.65 v -0.001 c 0,0 -1.437,-2.078 -4.003,-5.789 -0.266,-0.385 -0.542,-0.786 -0.833,-1.206 -0.08,-0.114 -0.156,-0.225 -0.237,-0.342 -5.334,-7.716 -14.477,-20.949 -25.519,-36.948 l 43.866,37.698 c 55.65,42.047 62.884,30.374 80.305,27.755 18.392,-2.765 40.679,-5.358 52.131,23.14 11.452,28.497 -21.005,53.975 -41.034,51.989 m -151.102,-124.05 0.832,-0.454 -81.514,-148.411 0.037,0.067 -0.037,-0.067 z M 213.819,208.293 c -3.095,1.012 -6.196,2.02 -9.294,3.033 -2.464,0.806 -4.927,1.614 -7.381,2.442 -2.66,0.893 -5.305,1.816 -7.937,2.763 -0.271,0.098 -0.54,0.198 -0.811,0.295 -2.577,0.935 -5.142,1.89 -7.685,2.877 -4.047,1.575 -8.044,3.235 -11.959,4.995 -5.22,2.347 -10.296,4.871 -15.159,7.611 -1.216,0.684 -2.418,1.382 -3.606,2.095 -3.564,2.135 -7.003,4.377 -10.297,6.717 -2.746,1.949 -5.377,3.973 -7.911,6.049 -2.534,2.077 -4.97,4.207 -7.269,6.396 -0.924,0.881 -1.843,1.752 -2.704,2.635 -0.437,0.44 -0.872,0.879 -1.307,1.315 -0.145,0.151 -0.288,0.3 -0.432,0.452 -0.289,0.302 -0.578,0.603 -0.864,0.903 -1.693,1.805 -3.29,3.65 -4.771,5.539 -2.964,3.774 -5.48,7.717 -7.379,11.764 -1.9,4.045 -3.188,8.18 -3.816,12.21 -0.636,4.029 -0.584,7.942 -0.035,11.525 0.557,3.586 1.634,6.834 2.941,9.666 1.312,2.837 2.867,5.264 4.449,7.301 2.256,2.889 4.545,4.971 6.512,6.472 0.81,0.619 1.572,1.149 2.245,1.581 1.162,0.737 2.099,1.223 2.739,1.529 0.639,0.31 0.976,0.45 0.976,0.45 0,0 -0.331,-0.154 -0.957,-0.487 -0.627,-0.33 -1.541,-0.852 -2.666,-1.628 -2.237,-1.555 -5.369,-4.163 -8.353,-8.289 -1.492,-2.054 -2.937,-4.483 -4.128,-7.291 -0.879,-2.076 -1.618,-4.364 -2.12,-6.823 -0.176,-0.864 -0.325,-1.746 -0.437,-2.651 -0.439,-3.476 -0.388,-7.243 0.327,-11.102 0.133,-0.724 0.295,-1.451 0.473,-2.18 0.354,-1.457 0.797,-2.92 1.325,-4.382 0.616,-1.705 1.343,-3.407 2.189,-5.093 1.93,-3.855 4.429,-7.627 7.389,-11.23 0.493,-0.601 1.016,-1.191 1.533,-1.783 0.517,-0.592 1.045,-1.18 1.585,-1.764 0.541,-0.584 1.075,-1.169 1.638,-1.744 0.421,-0.424 0.854,-0.873 1.273,-1.277 0.445,-0.428 0.89,-0.854 1.339,-1.282 0.396,-0.387 0.797,-0.763 1.201,-1.136 0.505,-0.467 1.012,-0.93 1.522,-1.393 3.698,-3.324 7.655,-6.594 11.897,-9.648 3.674,-2.657 7.546,-5.188 11.578,-7.579 0.62,-0.369 1.234,-0.743 1.863,-1.103 2.362,-1.342 4.764,-2.662 7.227,-3.912 0.406,-0.216 0.82,-0.421 1.232,-0.628 0.412,-0.207 0.824,-0.418 1.238,-0.623 0.415,-0.205 0.83,-0.409 1.244,-0.618 0.779,-0.366 1.556,-0.741 2.337,-1.113 0.481,-0.227 0.961,-0.457 1.449,-0.674 5.083,-2.35 10.336,-4.506 15.694,-6.53 3.446,-1.297 6.945,-2.526 10.464,-3.734 4.691,-1.61 9.424,-3.173 14.188,-4.711 2.779,-0.897 5.566,-1.791 8.353,-2.689 1.859,-0.6 3.717,-1.207 5.574,-1.818 3.714,-1.223 7.421,-2.475 11.1,-3.8 l 0.628,-0.226 c -0.576,-1.143 -1.143,-2.27 -1.705,-3.383 -5.509,2.01 -11.117,3.873 -16.739,5.709 m -86.122,118.343 c 0.761,0.35 1.475,0.648 2.12,0.889 0.464,0.176 0.882,0.319 1.278,0.448 0.793,0.258 1.46,0.44 1.957,0.56 0.37,0.096 0.656,0.149 0.845,0.189 0.19,0.041 0.288,0.062 0.288,0.062 0,0 -0.097,-0.025 -0.284,-0.074 -0.034,-0.008 -0.088,-0.022 -0.129,-0.032 -0.182,-0.045 -0.41,-0.1 -0.709,-0.191 -0.242,-0.069 -0.536,-0.16 -0.851,-0.261 -0.641,-0.207 -1.415,-0.483 -2.326,-0.869 -2.236,-0.941 -5.263,-2.554 -8.501,-5.191 -0.689,-0.562 -1.385,-1.153 -2.087,-1.812 -1.991,-1.878 -3.993,-4.184 -5.722,-6.976 -1.712,-2.795 -3.141,-6.09 -3.859,-9.787 -0.728,-3.689 -0.688,-7.763 0.262,-11.867 0.604,-2.643 1.582,-5.283 2.855,-7.878 0.708,-1.441 1.503,-2.867 2.383,-4.272 2.2,-3.498 4.919,-6.853 8.003,-10.053 0.385,-0.4 0.775,-0.798 1.172,-1.193 0.867,-0.871 1.837,-1.771 2.763,-2.668 0.316,-0.291 0.639,-0.579 0.957,-0.868 0.635,-0.579 1.266,-1.156 1.913,-1.737 0.753,-0.652 1.52,-1.303 2.289,-1.952 1.25,-1.056 2.517,-2.106 3.829,-3.13 3.167,-2.5 6.514,-4.902 10.016,-7.199 3.892,-2.552 7.987,-4.969 12.232,-7.257 2.123,-1.144 4.277,-2.262 6.477,-3.337 10.538,-5.213 21.906,-9.617 33.63,-13.639 1.953,-0.676 3.928,-1.333 5.898,-1.993 9.854,-3.302 19.892,-6.461 29.891,-9.896 0.668,-0.23 1.335,-0.463 2.001,-0.695 -0.381,-0.758 -0.757,-1.504 -1.134,-2.253 -0.189,-0.374 -0.381,-0.754 -0.567,-1.126 h -10e-4 c -0.509,0.18 -1.015,0.363 -1.524,0.539 -5.946,2.071 -11.941,4.038 -17.92,6.008 -5.98,1.971 -11.945,3.944 -17.829,6.029 -6.861,2.432 -13.615,5.008 -20.173,7.8 -4.684,1.994 -9.271,4.095 -13.711,6.347 -6.657,3.374 -12.981,7.086 -18.863,11.088 -3.529,2.401 -6.898,4.908 -10.085,7.507 -1.075,0.85 -2.096,1.752 -3.13,2.624 -1.026,0.876 -2.007,1.794 -3,2.679 -0.324,0.306 -0.638,0.61 -0.96,0.914 -0.645,0.611 -1.294,1.222 -1.921,1.828 -0.368,0.373 -0.731,0.735 -1.095,1.098 -0.546,0.544 -1.091,1.091 -1.641,1.666 -0.448,0.467 -0.889,0.936 -1.324,1.409 -3.039,3.311 -5.722,6.785 -7.898,10.414 -1.139,1.898 -2.125,3.843 -2.951,5.81 -0.677,1.61 -1.24,3.235 -1.68,4.864 -0.195,0.725 -0.375,1.448 -0.521,2.173 -0.88,4.344 -0.802,8.641 0.067,12.486 0.1,0.453 0.212,0.899 0.333,1.338 0.681,2.495 1.676,4.768 2.829,6.806 0.209,0.368 0.422,0.729 0.64,1.082 0.171,0.277 0.343,0.554 0.519,0.821 1.875,2.817 4.002,5.104 6.092,6.947 2.092,1.85 4.162,3.25 6.032,4.326 1.004,0.575 1.947,1.051 2.825,1.455 m 9.828,0.583 c 0.942,0.264 1.808,0.465 2.588,0.618 1.526,0.299 2.715,0.423 3.532,0.479 0.018,0.001 0.042,0.004 0.059,0.005 0.016,10e-4 0.027,10e-4 0.043,0.002 0.385,0.03 0.685,0.037 0.884,0.042 0.208,0.007 0.313,0.011 0.313,0.011 v 0 c 0,0 -0.029,-0.002 -0.063,-0.004 -0.049,-0.004 -0.125,-0.01 -0.25,-0.018 -0.206,-0.016 -0.517,-0.037 -0.922,-0.084 -0.812,-0.09 -2.016,-0.263 -3.551,-0.631 -3.056,-0.743 -7.514,-2.278 -12.387,-5.554 -0.473,-0.321 -0.949,-0.666 -1.425,-1.024 -1.195,-0.899 -2.389,-1.919 -3.54,-3.077 -0.736,-0.739 -1.455,-1.528 -2.142,-2.385 -2.165,-2.73 -4.016,-6.123 -4.755,-10.049 -0.192,-0.98 -0.307,-1.986 -0.347,-3.01 -0.121,-3.073 0.431,-6.308 1.597,-9.46 0.157,-0.421 0.33,-0.84 0.506,-1.258 1.142,-2.719 2.67,-5.385 4.511,-7.957 0.707,-0.989 1.46,-1.965 2.253,-2.924 1.578,-1.92 3.328,-3.806 5.162,-5.607 0.955,-0.904 1.91,-1.85 2.891,-2.742 0.992,-0.881 1.952,-1.799 2.997,-2.664 4.104,-3.528 8.53,-6.963 13.32,-10.153 9.557,-6.418 20.429,-11.951 32.05,-16.779 3.879,-1.601 7.848,-3.123 11.879,-4.588 2.015,-0.733 4.042,-1.456 6.089,-2.158 3.071,-1.053 6.174,-2.084 9.305,-3.088 2.346,-0.759 4.716,-1.507 7.086,-2.254 0.791,-0.25 1.57,-0.504 2.363,-0.752 7.659,-2.404 15.439,-4.75 23.21,-7.279 -0.285,-0.567 -0.567,-1.125 -0.85,-1.687 -0.283,-0.561 -0.569,-1.128 -0.849,-1.686 h -0.001 c -3.297,1.081 -6.602,2.13 -9.904,3.169 -4.247,1.337 -8.489,2.658 -12.703,3.997 -12.708,3.998 -25.17,8.268 -36.915,13.26 -11.744,4.976 -22.709,10.824 -32.346,17.521 -4.823,3.336 -9.303,6.893 -13.402,10.588 -0.218,0.19 -0.427,0.393 -0.641,0.588 -0.803,0.734 -1.587,1.488 -2.372,2.221 -0.983,0.937 -1.9,1.888 -2.84,2.816 -1.884,1.938 -3.614,3.893 -5.21,5.926 -2.789,3.541 -5.116,7.297 -6.678,11.205 -0.223,0.559 -0.43,1.119 -0.621,1.684 -0.75,2.255 -1.245,4.544 -1.402,6.804 -0.064,0.781 -0.062,1.555 -0.041,2.322 0.01,0.341 0.015,0.684 0.033,1.021 0.021,0.264 0.058,0.521 0.086,0.782 0.09,0.825 0.207,1.639 0.375,2.431 0.366,1.667 0.919,3.225 1.595,4.677 0.555,1.194 1.195,2.313 1.894,3.352 0.58,0.862 1.195,1.674 1.836,2.423 0.699,0.811 1.423,1.556 2.157,2.254 1.042,0.99 2.108,1.872 3.176,2.658 0.738,0.543 1.475,1.047 2.203,1.506 2.529,1.595 4.957,2.714 7.121,3.52 1.084,0.402 2.101,0.727 3.043,0.99 m -6.986,-12.573 c -0.509,-0.786 -0.976,-1.629 -1.365,-2.531 -0.383,-0.903 -0.695,-1.858 -0.921,-2.853 -0.443,-1.991 -0.534,-4.14 -0.24,-6.293 0.266,-2.16 0.906,-4.319 1.756,-6.44 0.871,-2.115 1.969,-4.191 3.249,-6.216 2.567,-4.047 5.792,-7.91 9.409,-11.655 7.226,-7.478 16.084,-14.633 26.335,-20.746 2.564,-1.525 5.196,-3.017 7.917,-4.414 1.351,-0.721 2.739,-1.385 4.124,-2.076 1.4,-0.656 2.802,-1.332 4.235,-1.957 2.851,-1.285 5.772,-2.496 8.74,-3.656 2.966,-1.168 5.989,-2.27 9.05,-3.33 4.533,-1.575 9.162,-3.043 13.847,-4.456 -0.856,-0.964 -1.706,-1.923 -2.547,-2.871 -27.987,9.754 -57.444,22.52 -77.027,42.166 -19.663,19.725 -13.885,34.176 -3.331,41.051 -1.167,-1.055 -2.285,-2.28 -3.231,-3.723 m 96.445,-79.619 c 4.635,-1.306 9.307,-2.599 13.985,-3.933 1.149,-0.328 2.299,-0.66 3.448,-0.994 -0.709,-1.407 -1.412,-2.807 -2.11,-4.192 -6.037,1.916 -12.372,3.924 -18.862,6.076 z m 35.147,30.205 c -5.429,-10.748 -10.842,-21.49 -16.016,-31.763 -1.381,0.396 -2.762,0.791 -4.137,1.177 -3.914,1.102 -7.804,2.17 -11.666,3.241 z m 41.182,74.815 c 1.741,5.757 7.818,9.016 13.578,7.276 4.677,-1.414 7.705,-5.693 7.742,-10.336 0.003,-0.357 -0.012,-0.716 -0.045,-1.076 -0.067,-0.721 -0.206,-1.446 -0.424,-2.165 -0.435,-1.44 -1.141,-2.724 -2.045,-3.811 -2.034,-2.448 -5.074,-3.907 -8.288,-3.932 -1.071,-0.009 -2.162,0.142 -3.242,0.468 -5.758,1.74 -9.016,7.817 -7.276,13.576 m 13.034,18.241 c 0.821,1.389 1.597,2.802 2.374,4.216 0.389,0.706 0.753,1.425 1.13,2.137 0.38,0.711 0.741,1.431 1.101,2.152 0.736,1.433 1.425,2.891 2.113,4.346 0.185,0.409 0.368,0.818 0.551,1.227 0.477,1.06 0.948,2.121 1.388,3.196 0.318,0.741 0.62,1.485 0.908,2.237 0.29,0.75 0.595,1.496 0.861,2.254 0.559,1.509 1.09,3.027 1.6,4.551 l 0.723,2.301 0.667,2.317 c 0.419,1.551 0.81,3.109 1.154,4.678 0.343,1.57 0.641,3.147 0.896,4.729 0.121,0.737 0.213,1.476 0.318,2.212 0.008,0.057 0.015,0.115 0.024,0.172 0.1,0.795 0.175,1.595 0.265,2.39 0.06,0.8 0.14,1.597 0.191,2.397 0.033,0.8 0.1,1.601 0.105,2.401 0.007,0.401 0.016,0.801 0.021,1.201 0,0.024 -0.001,0.047 -0.001,0.071 0.004,0.376 0.005,0.753 -0.007,1.13 l -0.014,0.801 -0.007,0.4 -0.062,1.199 c -0.026,0.8 -0.125,1.596 -0.186,2.393 -0.099,0.793 -0.179,1.591 -0.31,2.379 -0.233,1.582 -0.586,3.142 -0.987,4.689 -0.432,1.538 -0.952,3.047 -1.562,4.52 l -0.15,0.359 0.224,0.101 0.123,0.056 c 0.525,0.238 1.032,0.584 1.514,0.96 0.48,0.38 0.941,0.797 1.386,1.228 0.669,0.652 1.295,1.35 1.906,2.062 0.205,0.237 0.414,0.469 0.613,0.71 0.49,0.597 0.943,1.223 1.408,1.84 1.045,1.389 2.051,2.809 2.979,4.28 1.335,2.128 2.591,4.315 3.634,6.605 0.52,1.145 0.991,2.312 1.353,3.515 0.352,1.2 0.654,2.452 0.511,3.713 0.052,-0.312 0.072,-0.627 0.071,-0.944 -0.002,-0.316 -0.027,-0.633 -0.064,-0.947 -0.075,-0.63 -0.206,-1.251 -0.366,-1.862 -0.326,-1.226 -0.764,-2.418 -1.254,-3.585 -0.487,-1.169 -1.03,-2.314 -1.61,-3.44 -0.362,-0.702 -0.744,-1.396 -1.135,-2.084 -0.234,-0.413 -0.47,-0.825 -0.715,-1.232 -0.729,-1.204 -1.503,-2.381 -2.307,-3.537 -0.645,-0.925 -1.305,-1.839 -2.004,-2.725 -0.789,-0.994 -1.615,-1.964 -2.516,-2.875 -0.45,-0.455 -0.92,-0.895 -1.42,-1.308 -0.411,-0.332 -0.842,-0.647 -1.321,-0.914 0.586,-1.393 1.078,-2.824 1.498,-4.274 0.378,-1.414 0.7,-2.841 0.943,-4.282 0.029,-0.165 0.069,-0.329 0.094,-0.495 0.14,-0.803 0.228,-1.613 0.332,-2.42 0.068,-0.81 0.173,-1.619 0.205,-2.432 l 0.035,-0.609 0.036,-0.609 0.029,-1.22 c 0.014,-0.407 0.017,-0.813 0.015,-1.22 -0.002,-0.406 -0.008,-0.813 -0.013,-1.219 -10e-4,-0.814 -0.063,-1.625 -0.091,-2.437 -0.049,-0.811 -0.118,-1.62 -0.183,-2.431 -0.095,-0.806 -0.179,-1.613 -0.285,-2.419 -0.122,-0.802 -0.223,-1.607 -0.361,-2.408 -0.268,-1.602 -0.581,-3.194 -0.937,-4.777 -0.189,-0.837 -0.393,-1.671 -0.606,-2.503 -0.189,-0.739 -0.385,-1.477 -0.589,-2.212 l -0.687,-2.332 -0.744,-2.314 c -0.527,-1.532 -1.058,-3.064 -1.659,-4.567 -0.283,-0.759 -0.604,-1.503 -0.912,-2.252 -0.304,-0.75 -0.621,-1.494 -0.955,-2.231 -0.643,-1.487 -1.341,-2.947 -2.034,-4.407 -0.721,-1.45 -1.438,-2.898 -2.206,-4.321 -0.371,-0.718 -0.763,-1.426 -1.164,-2.128 -0.402,-0.702 -0.788,-1.411 -1.201,-2.107 -0.252,-0.428 -0.507,-0.854 -0.762,-1.281 -0.572,-0.961 -1.149,-1.919 -1.747,-2.864 -0.839,-1.381 -1.759,-2.709 -2.639,-4.063 0.007,0.011 0.013,0.022 0.02,0.033 -0.007,-0.011 -0.015,-0.022 -0.022,-0.033 0.828,1.389 1.677,2.761 2.476,4.162 m 26.244,110.141 c -0.278,0.447 -0.573,0.884 -0.87,1.319 -0.598,0.867 -1.244,1.7 -1.925,2.502 -0.341,0.4 -0.692,0.794 -1.054,1.176 -0.356,0.386 -0.728,0.76 -1.103,1.127 -0.377,0.366 -0.764,0.723 -1.157,1.072 -0.304,0.265 -0.616,0.521 -0.928,0.777 -0.094,0.077 -0.184,0.158 -0.279,0.232 -0.41,0.326 -0.828,0.642 -1.253,0.946 -0.422,0.31 -0.856,0.602 -1.296,0.884 -0.442,0.283 -0.891,0.545 -1.347,0.798 -0.456,0.249 -0.924,0.479 -1.396,0.697 l -0.304,0.142 0.063,0.318 0.291,1.444 0.363,1.427 c 0.133,0.471 0.289,0.937 0.432,1.406 0.151,0.467 0.333,0.922 0.497,1.385 0.356,0.914 0.744,1.815 1.175,2.695 0.429,0.881 0.89,1.746 1.401,2.58 0.243,0.425 0.512,0.834 0.779,1.244 0.261,0.414 0.54,0.816 0.824,1.213 0.277,0.405 0.563,0.799 0.862,1.186 0.293,0.39 0.589,0.779 0.902,1.154 0.609,0.763 1.25,1.499 1.907,2.221 0.656,0.722 1.339,1.418 2.033,2.103 0.698,0.68 1.414,1.34 2.147,1.982 l 1.122,0.937 0.724,0.573 0.421,0.332 1.169,0.875 1.191,0.844 c 0.803,0.55 1.618,1.08 2.445,1.589 0.832,0.504 1.672,0.995 2.53,1.45 0.863,0.446 1.734,0.877 2.621,1.271 0.471,0.208 0.943,0.41 1.419,0.604 0.423,0.171 0.849,0.338 1.278,0.491 0.909,0.34 1.843,0.604 2.775,0.859 -0.008,-0.003 -0.017,-0.006 -0.025,-0.009 0.009,0.002 0.017,0.005 0.026,0.007 -0.918,-0.308 -1.824,-0.642 -2.712,-1.021 -0.894,-0.365 -1.765,-0.781 -2.627,-1.211 -0.86,-0.434 -1.704,-0.901 -2.538,-1.383 l -1.238,-0.743 -1.218,-0.773 c -0.805,-0.527 -1.596,-1.076 -2.374,-1.642 l -1.152,-0.866 -1.129,-0.897 -1.104,-0.926 -1.079,-0.955 c -0.71,-0.647 -1.413,-1.299 -2.093,-1.976 -0.346,-0.346 -0.672,-0.708 -1.008,-1.062 -0.324,-0.342 -0.659,-0.675 -0.972,-1.026 -0.639,-0.715 -1.261,-1.443 -1.852,-2.197 -0.303,-0.371 -0.589,-0.756 -0.873,-1.141 -0.291,-0.38 -0.566,-0.771 -0.834,-1.169 -0.273,-0.391 -0.543,-0.787 -0.793,-1.194 -0.258,-0.404 -0.517,-0.805 -0.75,-1.221 -0.486,-0.823 -0.94,-1.663 -1.369,-2.516 -0.429,-0.852 -0.815,-1.726 -1.169,-2.611 -0.164,-0.447 -0.345,-0.888 -0.496,-1.34 -0.144,-0.455 -0.3,-0.905 -0.433,-1.363 l -0.365,-1.382 -0.23,-1.087 c 0.385,-0.187 0.766,-0.382 1.139,-0.59 0.47,-0.266 0.934,-0.544 1.386,-0.839 0.451,-0.296 0.896,-0.6 1.327,-0.923 0.438,-0.316 0.851,-0.661 1.262,-1.005 0.414,-0.345 0.812,-0.706 1.207,-1.07 0.39,-0.368 0.774,-0.743 1.148,-1.127 0.371,-0.386 0.739,-0.776 1.092,-1.181 0.357,-0.398 0.701,-0.81 1.034,-1.228 0.671,-0.835 1.304,-1.701 1.887,-2.599 0.291,-0.45 0.56,-0.912 0.824,-1.378 0.258,-0.47 0.504,-0.946 0.733,-1.43 0.223,-0.486 0.437,-0.977 0.622,-1.48 0.182,-0.502 0.353,-1.01 0.476,-1.531 0.139,-0.518 0.219,-1.049 0.267,-1.581 0.018,-0.267 0.023,-0.534 0.014,-0.8 -0.01,-0.267 -0.036,-0.532 -0.078,-0.794 0.109,1.061 -0.083,2.118 -0.385,3.124 -0.146,0.506 -0.338,0.999 -0.539,1.485 -0.205,0.484 -0.439,0.958 -0.681,1.427 -0.093,0.173 -0.197,0.34 -0.294,0.511 -0.162,0.287 -0.32,0.577 -0.493,0.858 m 35.63,41.927 c 1.16,-0.205 2.3,-0.491 3.411,-0.86 3.506,-1.166 6.717,-3.149 9.346,-5.961 9.291,-9.937 7.787,-26.439 -3.357,-36.859 -7.635,-7.135 -17.809,-9.565 -26.449,-7.198 -2.797,0.767 -5.426,2.046 -7.763,3.821 -0.255,0.194 -0.508,0.391 -0.755,0.597 -0.71,0.589 -1.393,1.219 -2.037,1.908 -4.812,5.147 -6.721,12.056 -5.902,18.968 0.17,1.429 0.448,2.857 0.849,4.27 0.02,0.068 0.043,0.135 0.063,0.202 1.004,3.436 2.694,6.773 5.045,9.795 0.277,0.357 0.563,0.709 0.859,1.056 0.456,0.535 0.927,1.064 1.427,1.575 0.329,0.337 0.668,0.669 1.017,0.995 6.993,6.538 16.121,9.125 24.246,7.691 m 10.326,50.625 c 1.247,-1.457 2.261,-3.102 3.163,-4.796 0.458,-0.845 0.863,-1.717 1.257,-2.594 l 0.557,-1.332 0.497,-1.357 0.451,-1.371 0.406,-1.385 0.359,-1.4 0.314,-1.412 c 0.185,-0.946 0.368,-1.894 0.492,-2.85 0.148,-0.952 0.238,-1.913 0.324,-2.874 0.053,-0.962 0.121,-1.926 0.121,-2.89 0.033,-0.966 -0.008,-1.929 -0.025,-2.894 -0.054,-0.962 -0.096,-1.926 -0.193,-2.886 -0.096,-0.96 -0.19,-1.919 -0.34,-2.872 -0.121,-0.956 -0.294,-1.904 -0.474,-2.852 -0.154,-0.953 -0.398,-1.885 -0.61,-2.825 -0.225,-0.938 -0.501,-1.861 -0.749,-2.791 l -0.798,-2.552 0.982,-1.521 c 0.373,-0.565 0.687,-1.167 1.033,-1.747 0.35,-0.58 0.659,-1.183 0.967,-1.785 0.312,-0.6 0.629,-1.198 0.903,-1.816 0.209,-0.462 0.426,-0.919 0.633,-1.382 0.069,-0.154 0.142,-0.307 0.205,-0.463 l 0.071,-0.173 0.691,-1.706 0.687,-1.906 c 0.225,-0.637 0.415,-1.285 0.624,-1.926 0.216,-0.64 0.375,-1.296 0.561,-1.944 0.192,-0.646 0.339,-1.306 0.495,-1.962 0.166,-0.654 0.297,-1.317 0.423,-1.979 0.137,-0.66 0.234,-1.327 0.326,-1.996 0.111,-0.665 0.168,-1.338 0.235,-2.01 0.084,-0.669 0.078,-1.346 0.12,-2.018 0.011,-0.335 -0.005,-0.673 -0.008,-1.011 -0.001,-0.337 -0.005,-0.674 -0.05,-1.009 -0.039,-0.335 -0.054,-0.672 -0.113,-1.004 l -0.033,-0.165 -0.166,-0.822 0.002,0.016 -0.003,-0.016 0.142,0.996 c 0.038,0.331 0.035,0.67 0.054,1.002 0.023,0.334 0.01,0.668 -0.002,1.002 -0.013,0.334 -0.012,0.669 -0.036,1.002 -0.04,0.37 -0.068,0.74 -0.102,1.11 -0.027,0.295 -0.055,0.591 -0.105,0.884 -0.045,0.312 -0.087,0.624 -0.134,0.935 -0.053,0.349 -0.111,0.698 -0.184,1.046 -0.121,0.657 -0.247,1.313 -0.408,1.962 -0.144,0.653 -0.291,1.304 -0.471,1.948 -0.173,0.645 -0.336,1.292 -0.543,1.929 -0.201,0.637 -0.375,1.281 -0.607,1.909 -0.223,0.628 -0.428,1.264 -0.669,1.887 l -0.728,1.864 -0.8,1.835 c -0.258,0.615 -0.564,1.207 -0.844,1.813 -0.087,0.191 -0.182,0.377 -0.276,0.565 -0.087,0.177 -0.175,0.354 -0.266,0.529 -0.12,0.229 -0.241,0.458 -0.362,0.687 -0.311,0.591 -0.619,1.181 -0.968,1.747 -0.346,0.569 -0.657,1.159 -1.03,1.709 l -0.836,1.587 0.143,0.102 0.063,0.21 0.436,2.157 0.131,0.653 c 0.008,0.033 0.013,0.066 0.022,0.099 0.215,0.892 0.274,1.832 0.48,2.724 0.192,0.929 0.425,1.854 0.584,2.791 0.183,0.932 0.352,1.868 0.479,2.808 0.157,0.937 0.251,1.883 0.351,2.828 0.107,0.942 0.15,1.893 0.212,2.839 0.027,0.95 0.075,1.897 0.05,2.847 0.009,0.95 -0.051,1.896 -0.094,2.846 -0.083,0.944 -0.129,1.893 -0.254,2.834 -0.085,0.812 -0.214,1.618 -0.349,2.423 -0.022,0.131 -0.042,0.264 -0.065,0.396 l -0.271,1.399 -0.316,1.39 -0.366,1.378 -0.41,1.366 c -0.295,0.905 -0.607,1.803 -0.949,2.692 -0.351,0.884 -0.715,1.765 -1.132,2.624 -0.41,0.86 -0.85,1.707 -1.335,2.528 -0.193,0.331 -0.394,0.655 -0.598,0.978 -0.306,0.486 -0.624,0.963 -0.974,1.418 M 344.152,353.557 c 0.313,0.453 0.601,0.868 0.862,1.245 0.651,0.943 1.134,1.642 1.436,2.078 0.241,0.349 0.365,0.528 0.365,0.528 -0.504,2.626 -1.163,5.517 -1.883,8.609 -5.043,21.644 -13.118,53.173 7.287,73.114 13.339,13.037 48.419,14.945 52.155,41.625 2.99,21.358 -7.086,28.666 -6.178,40.948 0.251,3.387 0.485,7.382 0.493,11.574 0.023,10.48 -1.357,22.187 -7.377,28.692 -1.205,1.301 -2.594,2.394 -4.196,3.227 -0.387,0.202 -0.746,0.365 -1.083,0.497 -4.599,1.812 -4.608,-2.454 -3.052,-3.897 8.307,-7.705 6.871,-28.42 -0.608,-36.795 -10.871,-12.177 -47.727,-9.24 -55.79,-45.472 23.035,-14.629 20.433,-33.88 -0.037,-51.687 4.505,-16.2 -0.268,-43.451 -11.323,-60.393 -3.16,-4.84 -12.45,-22.488 -24.286,-45.543 -22.736,-25.723 -49.381,-55.807 -71.633,-80.917 -5.221,1.5 -10.36,3.049 -15.368,4.737 -12.141,4.05 -23.543,8.902 -33.674,14.734 -10.14,5.818 -18.898,12.685 -26.183,19.834 -3.626,3.575 -6.852,7.26 -9.413,11.088 -1.274,1.918 -2.383,3.865 -3.27,5.838 -0.867,1.978 -1.528,3.98 -1.835,5.97 -0.333,1.986 -0.311,3.953 0.036,5.789 0.18,0.92 0.439,1.804 0.764,2.645 0.33,0.843 0.739,1.636 1.189,2.383 1.825,2.999 4.396,5.161 6.888,6.739 0.1,0.063 0.199,0.121 0.298,0.181 8.265,3.276 17.406,2.476 19.794,-3.254 2.858,-6.854 -2.072,-12.355 -6.37,-14.237 -6.461,-2.829 -9.972,0.733 -10.522,4.172 -7.758,-8.21 2.579,-15.745 12.569,-16.662 30.21,-2.769 37.372,47.888 -5.297,54.37 -17.551,2.665 -40.875,-5.455 -50.959,-32.752 -10.06,-27.243 1.957,-68.284 60.124,-93.528 8.854,-3.842 19.508,-8 30.563,-12.637 -9.97,-11.244 -16.133,-18.191 -16.133,-18.191 l 19.506,16.764 c 10.839,-4.618 21.92,-9.715 31.957,-15.448 -6.985,-13.82 -11.956,-23.568 -13.525,-26.384 -4.968,-8.903 -5.234,-11.5 -2.945,-9.014 0.298,0.324 0.64,0.735 1.02,1.23 1.141,1.484 2.629,3.719 4.336,6.637 0.624,1.064 2.307,3.646 4.847,7.451 22.223,33.303 110.003,160.321 126.451,184.112 M 323.759,177.498 c -1.251,3.15 -2.721,6.244 -4.431,9.227 -0.858,1.494 -1.761,2.945 -2.746,4.396 -0.246,0.371 -0.488,0.707 -0.73,1.053 l -0.379,0.533 -0.386,0.518 c -0.52,0.687 -1.025,1.386 -1.558,2.064 -4.246,5.457 -9.273,10.369 -14.802,14.637 -5.53,4.279 -11.582,7.865 -17.842,10.926 -6.267,3.058 -12.745,5.617 -19.279,7.816 -0.565,0.191 -1.133,0.369 -1.7,0.559 -0.74,-1.079 -1.474,-2.147 -2.205,-3.213 7.344,-2.43 14.591,-5.176 21.544,-8.528 6.088,-2.951 11.93,-6.388 17.243,-10.474 5.323,-4.071 10.109,-8.766 14.243,-13.93 8.345,-10.26 13.087,-22.871 14.794,-35.363 1.734,-12.512 0.548,-25.024 -3.175,-35.994 -1.87,-5.479 -4.352,-10.586 -7.423,-15.077 -3.064,-4.492 -6.713,-8.355 -10.726,-11.406 -4.015,-3.045 -8.375,-5.275 -12.744,-6.73 -4.378,-1.451 -8.753,-2.147 -12.879,-2.336 -4.133,-0.18 -8.021,0.117 -11.576,0.64 -1.088,0.164 -2.14,0.354 -3.165,0.557 13.996,-1.244 28.472,2.979 39.79,17.432 33.833,43.205 8.099,93.488 -27.056,109.095 -5.965,2.649 -13.371,5.25 -21.707,7.979 -0.712,-1.038 -1.42,-2.069 -2.122,-3.094 0.924,-0.336 1.847,-0.67 2.768,-1.011 0.168,-0.062 0.338,-0.121 0.506,-0.184 4.774,-1.811 9.51,-3.77 14.134,-5.974 1.542,-0.735 3.071,-1.497 4.585,-2.29 6.051,-3.166 11.873,-6.832 17.099,-11.221 2.608,-2.195 5.068,-4.562 7.31,-7.111 2.241,-2.545 4.258,-5.273 6.044,-8.107 3.565,-5.772 5.901,-12.053 7.323,-18.391 2.805,-12.697 1.942,-25.621 -1.824,-36.887 -1.896,-5.63 -4.548,-10.861 -7.917,-15.351 -0.84,-1.124 -1.723,-2.201 -2.645,-3.229 -1.151,-1.284 -2.367,-2.478 -3.627,-3.597 -1.764,-1.568 -3.618,-2.977 -5.546,-4.188 -1.542,-0.973 -3.123,-1.821 -4.724,-2.563 -2.972,-1.378 -6.013,-2.374 -9.008,-3.013 -3.345,-0.717 -6.621,-1.027 -9.757,-1.067 -0.109,-0.001 -0.218,-0.006 -0.326,-0.007 -1.078,-0.007 -2.139,0.017 -3.179,0.07 -1.389,0.069 -2.729,0.199 -4.047,0.352 -0.942,0.109 -1.866,0.234 -2.769,0.379 -1.627,0.259 -3.205,0.561 -4.704,0.908 -1.166,0.269 -2.279,0.562 -3.367,0.864 -2.177,0.604 -4.212,1.256 -6.077,1.917 -4.897,1.745 -8.72,3.531 -11.498,4.898 -0.397,0.196 -0.772,0.382 -1.127,0.559 -1.415,0.717 -2.49,1.283 -3.209,1.676 -0.72,0.388 -1.093,0.588 -1.093,0.588 0,0 0.01,-0.004 0.01,-0.005 0,0.001 -0.009,0.005 -0.009,0.005 0,0 0.38,-0.184 1.117,-0.543 0.112,-0.056 0.25,-0.121 0.38,-0.185 0.585,-0.282 1.343,-0.639 2.268,-1.064 0.205,-0.094 0.403,-0.186 0.625,-0.286 2.884,-1.303 7.162,-3.133 12.775,-4.932 2.298,-0.726 4.836,-1.429 7.582,-2.032 0.61,-0.134 1.219,-0.27 1.851,-0.392 3.473,-0.668 7.273,-1.182 11.343,-1.266 0.508,-0.01 1.02,-0.015 1.536,-0.011 3.613,0.022 7.416,0.408 11.268,1.349 1.647,0.403 3.304,0.909 4.948,1.528 2.739,1.033 5.444,2.382 8.014,4.092 3.606,2.38 6.925,5.458 9.768,9.093 0.407,0.52 0.803,1.05 1.189,1.592 3.095,4.328 5.56,9.33 7.277,14.738 1.72,5.407 2.718,11.213 2.946,17.172 0.217,5.957 -0.288,12.08 -1.689,18.1 -0.176,0.75 -0.366,1.5 -0.57,2.247 -1.426,5.229 -3.548,10.357 -6.479,14.997 -3.417,5.336 -7.75,10.143 -12.73,14.301 -4.985,4.16 -10.59,7.67 -16.472,10.722 -5.887,3.059 -12.06,5.663 -18.339,8.022 -1.374,0.519 -2.754,1.025 -4.137,1.523 -0.424,-0.618 -0.833,-1.215 -1.252,-1.827 -0.839,-1.224 -1.682,-2.455 -2.503,-3.653 5.779,-2.264 11.469,-4.749 16.955,-7.609 1.829,-0.953 3.635,-1.948 5.414,-2.989 5.446,-3.215 10.61,-6.89 15.205,-11.135 4.581,-4.242 8.566,-9.109 11.69,-14.283 1.98,-3.29 3.623,-6.695 4.931,-10.176 0.784,-2.088 1.448,-4.205 1.992,-6.339 0.719,-2.842 1.23,-5.707 1.506,-8.561 0.265,-2.857 0.312,-5.697 0.142,-8.486 -0.303,-4.881 -1.265,-9.613 -2.866,-13.977 -0.229,-0.624 -0.471,-1.24 -0.726,-1.847 -0.253,-0.609 -0.518,-1.209 -0.796,-1.799 -1.947,-4.138 -4.504,-7.834 -7.471,-10.912 -2.963,-3.09 -6.321,-5.546 -9.783,-7.402 -0.495,-0.265 -0.992,-0.518 -1.49,-0.759 -0.5,-0.238 -1.002,-0.464 -1.504,-0.679 -3.512,-1.504 -7.052,-2.44 -10.435,-2.971 -2.903,-0.449 -5.691,-0.636 -8.321,-0.628 -0.877,0.002 -1.736,0.026 -2.576,0.069 -3.363,0.174 -6.426,0.59 -9.155,1.116 -4.781,0.923 -8.554,2.095 -11.294,3.033 -0.391,0.135 -0.762,0.264 -1.111,0.387 -1.403,0.482 -2.456,0.91 -3.17,1.185 -0.713,0.277 -1.082,0.42 -1.082,0.42 0,0 0.006,-0.002 0.007,-0.002 -0.001,0 -0.006,0.002 -0.006,0.002 0,0 0.374,-0.123 1.101,-0.363 0.218,-0.072 0.478,-0.159 0.758,-0.252 0.499,-0.166 1.1,-0.362 1.796,-0.571 0.218,-0.066 0.431,-0.13 0.668,-0.199 2.834,-0.842 7.033,-1.988 12.471,-2.818 2.72,-0.406 5.753,-0.682 9.053,-0.721 3.297,-0.051 6.865,0.201 10.586,0.91 2.324,0.444 4.7,1.1 7.072,1.995 1.424,0.537 2.845,1.16 4.254,1.873 0.934,0.483 1.86,1.011 2.773,1.586 2.279,1.434 4.47,3.153 6.478,5.163 0.401,0.402 0.796,0.815 1.182,1.241 3.091,3.396 5.654,7.517 7.478,12.119 1.004,2.538 1.762,5.227 2.284,8.007 0.426,2.263 0.698,4.587 0.797,6.948 0.215,5.266 -0.382,10.711 -1.811,16.063 -0.464,1.745 -1.029,3.482 -1.671,5.201 -1.323,3.545 -3.006,7.01 -5.026,10.279 -1.912,3.086 -4.103,5.995 -6.543,8.73 -1.465,1.641 -3.019,3.22 -4.656,4.737 -4.381,4.017 -9.334,7.525 -14.608,10.615 -2.832,1.648 -5.758,3.173 -8.744,4.61 -2.587,1.246 -5.219,2.429 -7.887,3.548 -2.003,0.836 -4.026,1.641 -6.058,2.43 -0.693,-1.012 -1.367,-1.998 -2.046,-2.989 -0.339,-0.496 -0.687,-1.006 -1.022,-1.495 1.432,-0.597 2.852,-1.217 4.266,-1.848 0.707,-0.317 1.415,-0.63 2.117,-0.955 1.762,-0.822 3.497,-1.694 5.217,-2.588 3.441,-1.789 6.794,-3.72 9.985,-5.861 2.269,-1.526 4.456,-3.156 6.549,-4.876 0.113,-0.092 0.232,-0.177 0.343,-0.27 0.094,-0.078 0.18,-0.162 0.273,-0.24 2.091,-1.755 4.084,-3.605 5.937,-5.564 0.709,-0.74 1.39,-1.5 2.059,-2.268 1.169,-1.344 2.283,-2.726 3.321,-4.148 l 0.618,-0.83 0.585,-0.853 c 0.154,-0.231 0.311,-0.454 0.467,-0.679 0.234,-0.337 0.467,-0.676 0.691,-1.038 0.359,-0.57 0.717,-1.107 1.071,-1.701 0.347,-0.592 0.713,-1.18 1.045,-1.772 0.623,-1.091 1.209,-2.197 1.765,-3.312 1.839,-3.691 3.298,-7.501 4.28,-11.369 1.286,-5.034 1.724,-10.166 1.216,-15.061 -0.042,-0.407 -0.099,-0.81 -0.153,-1.215 -0.27,-2.019 -0.685,-3.994 -1.266,-5.886 -0.253,-0.818 -0.543,-1.614 -0.85,-2.4 -0.545,-1.397 -1.164,-2.747 -1.864,-4.028 -1.978,-3.608 -4.57,-6.655 -7.407,-9.117 -0.315,-0.274 -0.631,-0.546 -0.952,-0.805 -1.709,-1.378 -3.491,-2.547 -5.297,-3.538 -1.593,-0.875 -3.204,-1.613 -4.802,-2.218 -3.415,-1.281 -6.75,-2.029 -9.851,-2.437 -2.327,-0.307 -4.527,-0.425 -6.569,-0.426 -0.68,0 -1.344,0.012 -1.989,0.035 -1.506,0.058 -2.899,0.17 -4.201,0.311 -2.465,0.265 -4.56,0.64 -6.261,0.999 -0.481,0.1 -0.943,0.201 -1.361,0.295 -1.336,0.325 -2.357,0.581 -3.038,0.78 -0.684,0.189 -1.036,0.287 -1.036,0.287 0,0 0.022,-0.005 0.067,-0.014 0.133,-0.029 0.464,-0.099 0.985,-0.209 0.69,-0.156 1.725,-0.347 3.073,-0.588 0.677,-0.101 1.433,-0.215 2.265,-0.338 0.836,-0.095 1.744,-0.226 2.732,-0.302 1.971,-0.19 4.244,-0.332 6.786,-0.291 2.115,0.034 4.424,0.21 6.869,0.56 0.488,0.071 0.974,0.137 1.474,0.223 0.547,0.096 1.107,0.217 1.665,0.336 2.503,0.534 5.106,1.302 7.732,2.416 1.301,0.563 2.608,1.211 3.9,1.946 1.881,1.071 3.729,2.333 5.467,3.839 0.488,0.422 0.963,0.868 1.433,1.325 1.466,1.43 2.831,3.032 4.038,4.8 0.724,1.061 1.397,2.173 1.992,3.35 0.603,1.169 1.132,2.398 1.596,3.666 0.278,0.76 0.539,1.532 0.763,2.322 0.485,1.724 0.82,3.52 1.027,5.356 0.046,0.408 0.092,0.816 0.125,1.228 0.062,0.756 0.089,1.519 0.101,2.286 0.057,3.833 -0.497,7.779 -1.546,11.69 -0.79,2.936 -1.879,5.849 -3.223,8.703 -0.807,1.711 -1.705,3.402 -2.686,5.063 -0.322,0.555 -0.665,1.088 -0.997,1.635 -0.166,0.271 -0.346,0.549 -0.529,0.826 -0.183,0.279 -0.37,0.559 -0.55,0.836 -0.335,0.525 -0.738,1.062 -1.104,1.596 l -0.564,0.802 -0.594,0.782 c -1.567,2.101 -3.3,4.109 -5.148,6.037 -2.763,2.902 -5.841,5.569 -9.147,8.016 -1.103,0.816 -2.23,1.607 -3.38,2.374 -1.15,0.767 -2.323,1.508 -3.517,2.226 -3.58,2.154 -7.343,4.1 -11.212,5.89 -2.294,1.052 -4.624,2.052 -6.983,3.015 -3.286,-4.81 -6.352,-9.306 -9.139,-13.406 20.293,-12.787 34.612,-28.606 30.487,-49 -9.088,-44.94 -46.092,-14.484 -46.092,-14.484 -4.139,-7.586 16.97,-28.241 41.781,-33.768 0.253,-0.084 0.505,-0.17 0.764,-0.254 2.873,-0.924 6.107,-1.805 9.699,-2.463 3.591,-0.648 7.543,-1.074 11.784,-0.992 4.235,0.086 8.765,0.68 13.348,2.068 4.575,1.389 9.188,3.602 13.444,6.711 4.258,3.102 8.156,7.065 11.447,11.684 3.295,4.621 6.005,9.879 8.017,15.549 4.026,11.338 5.458,24.263 3.83,37.297 -0.839,6.509 -2.444,13.05 -4.948,19.355 m 29.023,321.144 c -0.378,-0.432 -0.792,-0.82 -1.111,-1.283 -0.338,-0.445 -0.67,-0.885 -0.998,-1.318 -0.163,-0.216 -0.325,-0.43 -0.485,-0.645 -0.153,-0.217 -0.28,-0.452 -0.419,-0.675 -0.271,-0.449 -0.536,-0.892 -0.796,-1.325 -0.128,-0.218 -0.264,-0.428 -0.379,-0.646 -0.108,-0.224 -0.214,-0.445 -0.319,-0.665 -0.758,-1.458 -1.292,-2.887 -1.707,-4.2 -0.075,-0.238 -0.148,-0.475 -0.217,-0.704 -0.186,-0.763 -0.368,-1.471 -0.517,-2.127 -0.108,-0.671 -0.176,-1.293 -0.252,-1.846 -0.036,-0.275 -0.069,-0.538 -0.102,-0.783 -0.027,-0.246 -0.013,-0.476 -0.021,-0.691 -0.007,-0.429 -0.013,-0.794 -0.018,-1.089 -0.003,-0.592 -0.004,-0.908 -0.004,-0.908 0,0 0.004,0.024 0.012,0.066 0.022,0.117 0.073,0.396 0.155,0.827 0.037,0.207 0.084,0.461 0.133,0.737 0.02,0.109 0.039,0.215 0.062,0.336 0.041,0.208 0.066,0.439 0.132,0.675 0.065,0.235 0.133,0.484 0.208,0.748 0.149,0.524 0.296,1.103 0.487,1.724 0.242,0.611 0.482,1.274 0.749,1.979 0.595,1.381 1.336,2.905 2.315,4.462 0.963,1.564 2.191,3.131 3.581,4.689 0.324,0.412 0.74,0.749 1.118,1.128 0.385,0.37 0.776,0.746 1.172,1.124 0.379,0.331 0.862,0.742 1.281,1.083 0.431,0.337 0.854,0.684 1.324,1.011 1.826,1.343 3.889,2.463 6.054,3.401 2.174,0.917 4.494,1.577 6.854,1.883 2.355,0.334 4.75,0.311 7.039,-0.069 1.143,-0.2 2.259,-0.482 3.334,-0.842 1.073,-0.369 2.092,-0.843 3.051,-1.383 0.967,-0.532 1.84,-1.179 2.664,-1.852 0.419,-0.329 0.792,-0.7 1.177,-1.056 0.313,-0.336 0.771,-0.795 1.062,-1.161 0.313,-0.38 0.626,-0.756 0.906,-1.175 0.3,-0.397 0.545,-0.822 0.804,-1.229 0.263,-0.406 0.468,-0.838 0.7,-1.247 0.194,-0.427 0.401,-0.84 0.571,-1.257 0.678,-1.68 1.096,-3.315 1.332,-4.794 0.233,-1.48 0.296,-2.801 0.289,-3.891 -10e-4,-0.546 -0.015,-1.034 -0.045,-1.459 -0.019,-0.425 -0.042,-0.79 -0.08,-1.081 -0.058,-0.59 -0.089,-0.903 -0.089,-0.903 0,0 0.088,0.305 0.25,0.873 0.086,0.286 0.169,0.643 0.259,1.064 0.046,0.212 0.096,0.44 0.147,0.682 0.038,0.244 0.079,0.505 0.121,0.78 0.163,1.104 0.307,2.466 0.23,4.038 -0.061,1.572 -0.293,3.359 -0.878,5.24 -0.572,1.894 -1.492,3.829 -2.885,5.712 -0.172,0.252 -0.344,0.456 -0.517,0.668 l -0.261,0.319 -0.131,0.16 -0.065,0.081 -0.017,0.02 -0.042,0.048 -0.038,0.04 c -0.401,0.429 -0.799,0.875 -1.247,1.28 -0.872,0.835 -1.863,1.587 -2.933,2.246 -2.133,1.333 -4.591,2.314 -7.181,2.792 -2.587,0.499 -5.288,0.527 -7.913,0.169 -2.629,-0.376 -5.182,-1.142 -7.555,-2.18 -2.376,-1.043 -4.545,-2.413 -6.471,-3.927 -0.486,-0.366 -0.954,-0.778 -1.418,-1.177 -0.467,-0.406 -0.835,-0.764 -1.283,-1.21 -0.397,-0.434 -0.79,-0.863 -1.179,-1.287 m -45.725,-163.949 13.71,2.544 c 0.035,-0.697 -0.036,-1.409 -0.219,-2.118 -0.023,-0.087 -0.04,-0.174 -0.067,-0.261 -0.135,-0.449 -0.315,-0.874 -0.527,-1.274 -0.008,-0.013 -0.013,-0.027 -0.02,-0.041 -0.042,-0.078 -0.093,-0.15 -0.138,-0.227 -1.612,-2.727 -4.931,-4.119 -8.095,-3.163 -1.518,0.458 -2.758,1.394 -3.628,2.587 -0.434,0.595 -0.784,1.251 -1.016,1.952 z m -0.351,2.452 c 0.004,0.132 0.017,0.265 0.028,0.397 0.041,0.464 0.121,0.929 0.262,1.392 0.352,1.162 0.978,2.167 1.786,2.965 1.779,1.756 4.439,2.513 6.994,1.74 2.278,-0.688 3.949,-2.436 4.645,-4.539 l -13.71,-2.546 c -0.01,0.196 -0.012,0.393 -0.005,0.591 m 4.447,-8.805 c 0.59,-0.178 1.184,-0.292 1.775,-0.346 4.136,-0.378 8.119,2.189 9.367,6.318 0.268,0.884 0.391,1.778 0.383,2.657 -0.033,3.807 -2.52,7.323 -6.354,8.482 -1.192,0.36 -2.401,0.456 -3.567,0.326 -3.447,-0.386 -6.509,-2.771 -7.573,-6.296 -1.426,-4.718 1.253,-9.715 5.969,-11.141"
           style="fill:#110f0d;fill-opacity:1;fill-rule:nonzero;stroke:none"
           id="path13307"
           inkscape:connector-curvature="0" /></g></g></g></svg>